<mxfile host="Electron" modified="2021-03-29T12:30:59.908Z" agent="5.0 (Windows NT 10.0; Win64; x64) AppleWebKit/537.36 (KHTML, like Gecko) draw.io/14.1.8 Chrome/87.0.4280.88 Electron/11.1.1 Safari/537.36" etag="bt9N2UtE-OMUbntMYy_D" compressed="false" version="14.1.8" type="device">
  <diagram id="ubT7oDk7aENY9L1uCGpw" name="Seite-1">
    <mxGraphModel dx="1596" dy="484" grid="1" gridSize="10" guides="1" tooltips="1" connect="1" arrows="1" fold="1" page="1" pageScale="1" pageWidth="827" pageHeight="1169" background="#000000" math="0" shadow="0">
      <root>
        <mxCell id="0" />
        <mxCell id="1" parent="0" />
        <mxCell id="V0A3EiAUycTR6TnLh54X-61" value="8,3%" style="rounded=0;whiteSpace=wrap;html=1;align=right;spacingRight=5;fillColor=#fff2cc;strokeColor=#d6b656;fontStyle=1" vertex="1" parent="1">
          <mxGeometry x="530" y="120" width="70" height="40" as="geometry" />
        </mxCell>
        <mxCell id="V0A3EiAUycTR6TnLh54X-62" value="33,3%" style="rounded=0;whiteSpace=wrap;html=1;align=right;spacingRight=5;fillColor=#fff2cc;strokeColor=#d6b656;fontStyle=1" vertex="1" parent="1">
          <mxGeometry x="530" y="160" width="70" height="40" as="geometry" />
        </mxCell>
        <mxCell id="V0A3EiAUycTR6TnLh54X-63" value="41,7%" style="rounded=0;whiteSpace=wrap;html=1;align=right;spacingRight=5;fillColor=#fff2cc;strokeColor=#d6b656;fontStyle=1" vertex="1" parent="1">
          <mxGeometry x="530" y="200" width="70" height="40" as="geometry" />
        </mxCell>
        <mxCell id="V0A3EiAUycTR6TnLh54X-64" value="16,7%" style="rounded=0;whiteSpace=wrap;html=1;align=right;spacingRight=5;fillColor=#fff2cc;strokeColor=#d6b656;fontStyle=1" vertex="1" parent="1">
          <mxGeometry x="530" y="240" width="70" height="40" as="geometry" />
        </mxCell>
        <mxCell id="V0A3EiAUycTR6TnLh54X-66" value="&lt;span class=&quot;Grek&quot; lang=&quot;grc-Grek&quot;&gt;Σ&lt;/span&gt;" style="rounded=0;whiteSpace=wrap;html=1;fontStyle=1;fillColor=#ffe6cc;strokeColor=#d79b00;" vertex="1" parent="1">
          <mxGeometry x="450" y="80" width="40" height="40" as="geometry" />
        </mxCell>
        <mxCell id="V0A3EiAUycTR6TnLh54X-50" value="&lt;span class=&quot;Grek&quot; lang=&quot;grc-Grek&quot;&gt;Σ&lt;/span&gt;" style="rounded=0;whiteSpace=wrap;html=1;fillColor=#ffe6cc;strokeColor=#d79b00;" vertex="1" parent="1">
          <mxGeometry x="450" y="80" width="40" height="40" as="geometry" />
        </mxCell>
        <mxCell id="V0A3EiAUycTR6TnLh54X-55" value="Rang" style="rounded=0;whiteSpace=wrap;html=1;fontStyle=1;fillColor=#ffe6cc;strokeColor=#d79b00;" vertex="1" parent="1">
          <mxGeometry x="490" y="80" width="40" height="40" as="geometry" />
        </mxCell>
        <mxCell id="V0A3EiAUycTR6TnLh54X-60" value="&lt;font style=&quot;font-size: 12px&quot;&gt;&lt;b&gt;&lt;font style=&quot;font-size: 12px&quot;&gt;Gewicht&lt;/font&gt;&lt;br&gt;(%)&lt;/b&gt;&lt;/font&gt;" style="rounded=0;whiteSpace=wrap;html=1;fontSize=9;fillColor=#ffe6cc;strokeColor=#d79b00;" vertex="1" parent="1">
          <mxGeometry x="530" y="80" width="70" height="40" as="geometry" />
        </mxCell>
        <mxCell id="V0A3EiAUycTR6TnLh54X-65" value="&lt;span class=&quot;Grek&quot; lang=&quot;grc-Grek&quot;&gt;Σ&lt;/span&gt;" style="rounded=0;whiteSpace=wrap;html=1;fillColor=#ffe6cc;strokeColor=#d79b00;" vertex="1" parent="1">
          <mxGeometry x="450" y="80" width="40" height="40" as="geometry" />
        </mxCell>
        <mxCell id="V0A3EiAUycTR6TnLh54X-5" value="&lt;span&gt;P&lt;/span&gt;&lt;sub&gt;1&lt;/sub&gt;" style="rounded=0;whiteSpace=wrap;html=1;fillColor=#ffe6cc;strokeColor=#d79b00;" vertex="1" parent="1">
          <mxGeometry x="280" y="80" width="40" height="40" as="geometry" />
        </mxCell>
        <mxCell id="V0A3EiAUycTR6TnLh54X-35" value="&lt;span&gt;P&lt;/span&gt;&lt;sub&gt;2&lt;/sub&gt;" style="rounded=0;whiteSpace=wrap;html=1;fontStyle=1;fillColor=#ffe6cc;strokeColor=#d79b00;" vertex="1" parent="1">
          <mxGeometry x="320" y="80" width="40" height="40" as="geometry" />
        </mxCell>
        <mxCell id="V0A3EiAUycTR6TnLh54X-40" value="&lt;span&gt;P&lt;/span&gt;&lt;sub&gt;3&lt;/sub&gt;" style="rounded=0;whiteSpace=wrap;html=1;fontStyle=1;fillColor=#ffe6cc;strokeColor=#d79b00;" vertex="1" parent="1">
          <mxGeometry x="360" y="80" width="40" height="40" as="geometry" />
        </mxCell>
        <mxCell id="V0A3EiAUycTR6TnLh54X-45" value="&lt;span&gt;P&lt;/span&gt;&lt;sub&gt;4&lt;/sub&gt;" style="rounded=0;whiteSpace=wrap;html=1;fontStyle=1;fillColor=#ffe6cc;strokeColor=#d79b00;" vertex="1" parent="1">
          <mxGeometry x="400" y="80" width="40" height="40" as="geometry" />
        </mxCell>
        <mxCell id="V0A3EiAUycTR6TnLh54X-67" value="&lt;span&gt;P&lt;/span&gt;&lt;sub&gt;1&lt;/sub&gt;" style="rounded=0;whiteSpace=wrap;html=1;fontStyle=1;fillColor=#ffe6cc;strokeColor=#d79b00;" vertex="1" parent="1">
          <mxGeometry x="280" y="80" width="40" height="40" as="geometry" />
        </mxCell>
        <mxCell id="V0A3EiAUycTR6TnLh54X-1" value="P&lt;sub&gt;1&lt;/sub&gt;" style="rounded=0;whiteSpace=wrap;html=1;fontStyle=1;fillColor=#ffe6cc;strokeColor=#d79b00;" vertex="1" parent="1">
          <mxGeometry x="240" y="120" width="40" height="40" as="geometry" />
        </mxCell>
        <mxCell id="V0A3EiAUycTR6TnLh54X-2" value="&lt;span&gt;P&lt;/span&gt;&lt;sub&gt;2&lt;/sub&gt;" style="rounded=0;whiteSpace=wrap;html=1;fillColor=#ffe6cc;strokeColor=#d79b00;" vertex="1" parent="1">
          <mxGeometry x="240" y="160" width="40" height="40" as="geometry" />
        </mxCell>
        <mxCell id="V0A3EiAUycTR6TnLh54X-3" value="&lt;span&gt;P&lt;/span&gt;&lt;sub&gt;3&lt;/sub&gt;" style="rounded=0;whiteSpace=wrap;html=1;fontStyle=1;fillColor=#ffe6cc;strokeColor=#d79b00;" vertex="1" parent="1">
          <mxGeometry x="240" y="200" width="40" height="40" as="geometry" />
        </mxCell>
        <mxCell id="V0A3EiAUycTR6TnLh54X-4" value="&lt;span&gt;P&lt;/span&gt;&lt;sub&gt;4&lt;/sub&gt;" style="rounded=0;whiteSpace=wrap;html=1;fontStyle=1;fillColor=#ffe6cc;strokeColor=#d79b00;" vertex="1" parent="1">
          <mxGeometry x="240" y="240" width="40" height="40" as="geometry" />
        </mxCell>
        <mxCell id="V0A3EiAUycTR6TnLh54X-68" value="&lt;span&gt;P&lt;/span&gt;&lt;sub&gt;2&lt;/sub&gt;" style="rounded=0;whiteSpace=wrap;html=1;fontStyle=1;fillColor=#ffe6cc;strokeColor=#d79b00;" vertex="1" parent="1">
          <mxGeometry x="240" y="160" width="40" height="40" as="geometry" />
        </mxCell>
        <mxCell id="V0A3EiAUycTR6TnLh54X-69" value="&lt;span class=&quot;Grek&quot; lang=&quot;grc-Grek&quot;&gt;Σ&lt;/span&gt;" style="rounded=0;whiteSpace=wrap;html=1;fontStyle=1;fillColor=#ffe6cc;strokeColor=#d79b00;" vertex="1" parent="1">
          <mxGeometry x="240" y="280" width="40" height="40" as="geometry" />
        </mxCell>
        <mxCell id="V0A3EiAUycTR6TnLh54X-6" value="X" style="rounded=0;whiteSpace=wrap;html=1;" vertex="1" parent="1">
          <mxGeometry x="280" y="120" width="40" height="40" as="geometry" />
        </mxCell>
        <mxCell id="V0A3EiAUycTR6TnLh54X-7" value="2" style="rounded=0;whiteSpace=wrap;html=1;" vertex="1" parent="1">
          <mxGeometry x="280" y="160" width="40" height="40" as="geometry" />
        </mxCell>
        <mxCell id="V0A3EiAUycTR6TnLh54X-8" value="2" style="rounded=0;whiteSpace=wrap;html=1;" vertex="1" parent="1">
          <mxGeometry x="280" y="200" width="40" height="40" as="geometry" />
        </mxCell>
        <mxCell id="V0A3EiAUycTR6TnLh54X-9" value="1" style="rounded=0;whiteSpace=wrap;html=1;" vertex="1" parent="1">
          <mxGeometry x="280" y="240" width="40" height="40" as="geometry" />
        </mxCell>
        <mxCell id="V0A3EiAUycTR6TnLh54X-36" value="0" style="rounded=0;whiteSpace=wrap;html=1;" vertex="1" parent="1">
          <mxGeometry x="320" y="120" width="40" height="40" as="geometry" />
        </mxCell>
        <mxCell id="V0A3EiAUycTR6TnLh54X-37" value="X" style="rounded=0;whiteSpace=wrap;html=1;" vertex="1" parent="1">
          <mxGeometry x="320" y="160" width="40" height="40" as="geometry" />
        </mxCell>
        <mxCell id="V0A3EiAUycTR6TnLh54X-38" value="2" style="rounded=0;whiteSpace=wrap;html=1;" vertex="1" parent="1">
          <mxGeometry x="320" y="200" width="40" height="40" as="geometry" />
        </mxCell>
        <mxCell id="V0A3EiAUycTR6TnLh54X-39" value="0" style="rounded=0;whiteSpace=wrap;html=1;" vertex="1" parent="1">
          <mxGeometry x="320" y="240" width="40" height="40" as="geometry" />
        </mxCell>
        <mxCell id="V0A3EiAUycTR6TnLh54X-41" value="0" style="rounded=0;whiteSpace=wrap;html=1;" vertex="1" parent="1">
          <mxGeometry x="360" y="120" width="40" height="40" as="geometry" />
        </mxCell>
        <mxCell id="V0A3EiAUycTR6TnLh54X-42" value="0" style="rounded=0;whiteSpace=wrap;html=1;" vertex="1" parent="1">
          <mxGeometry x="360" y="160" width="40" height="40" as="geometry" />
        </mxCell>
        <mxCell id="V0A3EiAUycTR6TnLh54X-43" value="X" style="rounded=0;whiteSpace=wrap;html=1;" vertex="1" parent="1">
          <mxGeometry x="360" y="200" width="40" height="40" as="geometry" />
        </mxCell>
        <mxCell id="V0A3EiAUycTR6TnLh54X-44" value="1" style="rounded=0;whiteSpace=wrap;html=1;" vertex="1" parent="1">
          <mxGeometry x="360" y="240" width="40" height="40" as="geometry" />
        </mxCell>
        <mxCell id="V0A3EiAUycTR6TnLh54X-46" value="1" style="rounded=0;whiteSpace=wrap;html=1;" vertex="1" parent="1">
          <mxGeometry x="400" y="120" width="40" height="40" as="geometry" />
        </mxCell>
        <mxCell id="V0A3EiAUycTR6TnLh54X-47" value="2" style="rounded=0;whiteSpace=wrap;html=1;" vertex="1" parent="1">
          <mxGeometry x="400" y="160" width="40" height="40" as="geometry" />
        </mxCell>
        <mxCell id="V0A3EiAUycTR6TnLh54X-48" value="1" style="rounded=0;whiteSpace=wrap;html=1;" vertex="1" parent="1">
          <mxGeometry x="400" y="200" width="40" height="40" as="geometry" />
        </mxCell>
        <mxCell id="V0A3EiAUycTR6TnLh54X-49" value="X" style="rounded=0;whiteSpace=wrap;html=1;" vertex="1" parent="1">
          <mxGeometry x="400" y="240" width="40" height="40" as="geometry" />
        </mxCell>
        <mxCell id="V0A3EiAUycTR6TnLh54X-51" value="1" style="rounded=0;whiteSpace=wrap;html=1;" vertex="1" parent="1">
          <mxGeometry x="450" y="120" width="40" height="40" as="geometry" />
        </mxCell>
        <mxCell id="V0A3EiAUycTR6TnLh54X-52" value="4" style="rounded=0;whiteSpace=wrap;html=1;" vertex="1" parent="1">
          <mxGeometry x="450" y="160" width="40" height="40" as="geometry" />
        </mxCell>
        <mxCell id="V0A3EiAUycTR6TnLh54X-53" value="5" style="rounded=0;whiteSpace=wrap;html=1;" vertex="1" parent="1">
          <mxGeometry x="450" y="200" width="40" height="40" as="geometry" />
        </mxCell>
        <mxCell id="V0A3EiAUycTR6TnLh54X-54" value="2" style="rounded=0;whiteSpace=wrap;html=1;" vertex="1" parent="1">
          <mxGeometry x="450" y="240" width="40" height="40" as="geometry" />
        </mxCell>
        <mxCell id="V0A3EiAUycTR6TnLh54X-56" value="4" style="rounded=0;whiteSpace=wrap;html=1;" vertex="1" parent="1">
          <mxGeometry x="490" y="120" width="40" height="40" as="geometry" />
        </mxCell>
        <mxCell id="V0A3EiAUycTR6TnLh54X-57" value="2" style="rounded=0;whiteSpace=wrap;html=1;" vertex="1" parent="1">
          <mxGeometry x="490" y="160" width="40" height="40" as="geometry" />
        </mxCell>
        <mxCell id="V0A3EiAUycTR6TnLh54X-58" value="1" style="rounded=0;whiteSpace=wrap;html=1;" vertex="1" parent="1">
          <mxGeometry x="490" y="200" width="40" height="40" as="geometry" />
        </mxCell>
        <mxCell id="V0A3EiAUycTR6TnLh54X-59" value="3" style="rounded=0;whiteSpace=wrap;html=1;" vertex="1" parent="1">
          <mxGeometry x="490" y="240" width="40" height="40" as="geometry" />
        </mxCell>
        <mxCell id="V0A3EiAUycTR6TnLh54X-71" value="" style="rounded=0;whiteSpace=wrap;html=1;fontStyle=1;fillColor=#f5f5f5;strokeColor=#666666;fontColor=#333333;" vertex="1" parent="1">
          <mxGeometry x="320" y="280" width="40" height="40" as="geometry" />
        </mxCell>
        <mxCell id="V0A3EiAUycTR6TnLh54X-72" value="" style="rounded=0;whiteSpace=wrap;html=1;fontStyle=1;fillColor=#f5f5f5;strokeColor=#666666;fontColor=#333333;" vertex="1" parent="1">
          <mxGeometry x="360" y="280" width="40" height="40" as="geometry" />
        </mxCell>
        <mxCell id="V0A3EiAUycTR6TnLh54X-73" value="" style="rounded=0;whiteSpace=wrap;html=1;fontStyle=1;fillColor=#f5f5f5;strokeColor=#666666;fontColor=#333333;" vertex="1" parent="1">
          <mxGeometry x="400" y="280" width="40" height="40" as="geometry" />
        </mxCell>
        <mxCell id="V0A3EiAUycTR6TnLh54X-74" value="12" style="rounded=0;whiteSpace=wrap;html=1;fontStyle=0;fillColor=#f5f5f5;strokeColor=#666666;fontColor=#333333;" vertex="1" parent="1">
          <mxGeometry x="450" y="280" width="40" height="40" as="geometry" />
        </mxCell>
        <mxCell id="V0A3EiAUycTR6TnLh54X-75" value="" style="rounded=0;whiteSpace=wrap;html=1;fontStyle=1;fillColor=#f5f5f5;strokeColor=#666666;fontColor=#333333;" vertex="1" parent="1">
          <mxGeometry x="490" y="280" width="40" height="40" as="geometry" />
        </mxCell>
        <mxCell id="V0A3EiAUycTR6TnLh54X-76" value="100,0%" style="rounded=0;whiteSpace=wrap;html=1;fontStyle=1;align=right;spacingRight=5;fillColor=#f5f5f5;strokeColor=#666666;fontColor=#333333;" vertex="1" parent="1">
          <mxGeometry x="530" y="280" width="70" height="40" as="geometry" />
        </mxCell>
        <mxCell id="V0A3EiAUycTR6TnLh54X-78" value="" style="rounded=0;whiteSpace=wrap;html=1;fontStyle=1;fillColor=#f5f5f5;strokeColor=#666666;fontColor=#333333;" vertex="1" parent="1">
          <mxGeometry x="280" y="280" width="40" height="40" as="geometry" />
        </mxCell>
        <mxCell id="V0A3EiAUycTR6TnLh54X-83" value="&lt;font style=&quot;font-size: 12px;&quot;&gt;&lt;b style=&quot;font-size: 12px;&quot;&gt;Legende&lt;/b&gt;:&lt;br style=&quot;font-size: 12px;&quot;&gt;&lt;ul style=&quot;font-size: 12px;&quot;&gt;&lt;li style=&quot;font-size: 12px;&quot;&gt;&lt;font style=&quot;font-size: 12px;&quot;&gt;X: Identität&lt;/font&gt;&lt;/li&gt;&lt;li style=&quot;font-size: 12px;&quot;&gt;&lt;font style=&quot;font-size: 12px;&quot;&gt;0: Zeilenwert weniger wichtig als Spaltenwert&lt;/font&gt;&lt;/li&gt;&lt;li style=&quot;font-size: 12px;&quot;&gt;&lt;font style=&quot;font-size: 12px;&quot;&gt;1: Zeilen- und Spaltenwert gleichwichtig&lt;/font&gt;&lt;/li&gt;&lt;li style=&quot;font-size: 12px;&quot;&gt;&lt;font style=&quot;font-size: 12px;&quot;&gt;2: Zeilenwert wichtiger als Spaltenwert&lt;/font&gt;&lt;/li&gt;&lt;/ul&gt;&lt;/font&gt;" style="rounded=0;whiteSpace=wrap;html=1;fontSize=12;align=left;spacingLeft=0;fontColor=#FFFFFF;fillColor=none;strokeColor=none;" vertex="1" parent="1">
          <mxGeometry x="-90" y="80" width="290" height="90" as="geometry" />
        </mxCell>
      </root>
    </mxGraphModel>
  </diagram>
</mxfile>
